<svg xmlns="http://www.w3.org/2000/svg" xmlns:xlink="http://www.w3.org/1999/xlink" viewBox="0 0 198.43 198.43"><defs><style>.cls-1,.cls-2{fill:none;}.cls-2{stroke:#465e5d;stroke-miterlimit:10;stroke-width:0.25px;}.cls-3{fill:#77b593;}.cls-4{clip-path:url(#clip-path);}.cls-15,.cls-5{fill:#f4f2f2;}.cls-22,.cls-6{fill:#efc7c2;}.cls-38,.cls-7{fill:#d09e97;}.cls-20,.cls-8{fill:#fff;}.cls-9{fill:#e1e0e0;}.cls-10{fill:#626667;}.cls-11,.cls-12{fill:#304940;}.cls-11,.cls-13,.cls-15,.cls-17,.cls-18,.cls-19,.cls-20,.cls-21,.cls-22,.cls-23,.cls-24,.cls-25,.cls-26,.cls-27,.cls-28,.cls-29,.cls-30,.cls-31,.cls-32,.cls-35,.cls-36,.cls-37,.cls-38,.cls-39,.cls-40,.cls-41,.cls-43,.cls-44,.cls-45,.cls-46,.cls-47,.cls-48,.cls-49{fill-rule:evenodd;}.cls-13{fill:url(#Nouveau_motif_2);}.cls-14{fill:url(#Nouveau_motif_2-3);}.cls-16,.cls-19{fill:#cccccb;}.cls-17{fill:#665f5f;}.cls-18{fill:#c69595;}.cls-21{fill:url(#Dégradé_sans_nom_23);}.cls-23{fill:url(#Dégradé_sans_nom_12);}.cls-24{fill:#dbb1aa;}.cls-25{fill:url(#Dégradé_sans_nom_12-2);}.cls-26{fill:url(#Dégradé_sans_nom_12-3);}.cls-27{fill:#c3948c;}.cls-28{fill:#c59790;}.cls-29{fill:url(#Dégradé_sans_nom_12-4);}.cls-30{fill:url(#Dégradé_sans_nom_12-5);}.cls-31{fill:#5a3116;}.cls-32,.cls-33{fill:#693815;}.cls-34,.cls-44{fill:#8d4920;}.cls-35{fill:url(#Dégradé_sans_nom_11);}.cls-36{fill:url(#Dégradé_sans_nom_11-2);}.cls-37{fill:url(#Dégradé_sans_nom_12-6);}.cls-39{fill:#292621;}.cls-40{fill:url(#Dégradé_sans_nom_3);}.cls-41{fill:#24211f;}.cls-42{fill:#352e2a;}.cls-43{fill:url(#Dégradé_sans_nom_22);}.cls-45{fill:#893842;}.cls-46{fill:url(#Dégradé_sans_nom_12-7);}.cls-47{fill:url(#Dégradé_sans_nom_12-8);}.cls-48{fill:#66635c;}.cls-49{fill:url(#Dégradé_sans_nom_12-9);}</style><clipPath id="clip-path"><path class="cls-1" d="M190,99.21a91.5,91.5,0,0,1-183,0C7,48.68,47.93,0,98.46,0,213.8,0,190-2.73,190,99.21Z"/></clipPath><pattern id="Nouveau_motif_2" data-name="Nouveau motif 2" width="8.5" height="8.5" patternTransform="translate(-54.04 -26.2) scale(0.83)" patternUnits="userSpaceOnUse" viewBox="0 0 8.5 8.5"><rect class="cls-1" width="8.5" height="8.5"/><path class="cls-2" d="M6.33,3.91c0-.21-.46-.31-.94-.22l-.18.05.12-.14c.31-.38.42-.79.26-.93s-.56.06-.86.44l-.09.12s0-.1,0-.15c0-.49-.18-.88-.4-.88s-.39.39-.39.88c0,.06,0,.12,0,.18a.76.76,0,0,0-.11-.14c-.31-.38-.7-.56-.86-.43s0,.56.26.93l.13.13-.18,0c-.48-.08-.9,0-.93.24s.32.45.8.53l.18,0L3,4.59c-.42.25-.68.6-.57.78s.54.14,1-.1l.16-.1a.87.87,0,0,0-.07.17c-.17.45-.13.88.07,1s.5-.24.66-.7a1.21,1.21,0,0,0,0-.18l.06.18c.17.45.47.76.68.68s.22-.5,0-1A1.22,1.22,0,0,0,5,5.15l.16.1c.42.24.85.28,1,.09s-.15-.53-.57-.77l-.17-.08.19,0C6,4.37,6.37,4.13,6.33,3.91Z"/></pattern><pattern id="Nouveau_motif_2-3" data-name="Nouveau motif 2" width="8.5" height="8.5" patternTransform="translate(-56.13 -25.63) scale(0.83)" patternUnits="userSpaceOnUse" viewBox="0 0 8.5 8.5"><rect class="cls-1" width="8.5" height="8.5"/><path class="cls-2" d="M6.33,3.91c0-.21-.46-.31-.94-.22l-.18.05.12-.14c.31-.38.42-.79.26-.93s-.56.06-.86.44l-.09.12s0-.1,0-.15c0-.49-.18-.88-.4-.88s-.39.39-.39.88c0,.06,0,.12,0,.18a.76.76,0,0,0-.11-.14c-.31-.38-.7-.56-.86-.43s0,.56.26.93l.13.13-.18,0c-.48-.08-.9,0-.93.24s.32.45.8.53l.18,0L3,4.59c-.42.25-.68.6-.57.78s.54.14,1-.1l.16-.1a.87.87,0,0,0-.07.17c-.17.45-.13.88.07,1s.5-.24.66-.7a1.21,1.21,0,0,0,0-.18l.06.18c.17.45.47.76.68.68s.22-.5,0-1A1.22,1.22,0,0,0,5,5.15l.16.1c.42.24.85.28,1,.09s-.15-.53-.57-.77l-.17-.08.19,0C6,4.37,6.37,4.13,6.33,3.91Z"/></pattern><linearGradient id="Dégradé_sans_nom_23" x1="74.81" y1="190.37" x2="74.81" y2="137.17" gradientTransform="translate(-15.21 -23.01) rotate(-4.99)" gradientUnits="userSpaceOnUse"><stop offset="0" stop-color="#d09f97"/><stop offset="0.36" stop-color="#d9aaa3"/><stop offset="1" stop-color="#efc8c3"/></linearGradient><linearGradient id="Dégradé_sans_nom_12" x1="104.38" y1="127.32" x2="111.83" y2="127.32" gradientTransform="translate(-15.21 -23.01) rotate(-4.99)" gradientUnits="userSpaceOnUse"><stop offset="0" stop-color="#ddaaa3"/><stop offset="1" stop-color="#d8aca4"/></linearGradient><linearGradient id="Dégradé_sans_nom_12-2" x1="88.25" y1="168.57" x2="90.42" y2="168.57" xlink:href="#Dégradé_sans_nom_12"/><linearGradient id="Dégradé_sans_nom_12-3" x1="1355.67" y1="138.5" x2="1373.7" y2="138.5" gradientTransform="translate(-1284.1 -1.55) rotate(-1.27)" xlink:href="#Dégradé_sans_nom_12"/><linearGradient id="Dégradé_sans_nom_12-4" x1="43.5" y1="129" x2="52.36" y2="129" gradientTransform="translate(-6.64 -27.08) rotate(-2.3)" xlink:href="#Dégradé_sans_nom_12"/><linearGradient id="Dégradé_sans_nom_12-5" x1="46.9" y1="128.77" x2="48.76" y2="128.77" gradientTransform="translate(-6.64 -27.08) rotate(-2.3)" xlink:href="#Dégradé_sans_nom_12"/><linearGradient id="Dégradé_sans_nom_11" x1="1483.18" y1="212.62" x2="1488.66" y2="212.62" gradientTransform="matrix(0.65, -0.12, 0.07, 0.56, -902.88, 155.81)" gradientUnits="userSpaceOnUse"><stop offset="0" stop-color="#efc8c3"/><stop offset="1" stop-color="#cd9b95"/></linearGradient><linearGradient id="Dégradé_sans_nom_11-2" x1="1343.82" y1="155.09" x2="1343.82" y2="132.66" gradientTransform="translate(-1256.37 -47.04) rotate(-0.27)" xlink:href="#Dégradé_sans_nom_11"/><linearGradient id="Dégradé_sans_nom_12-6" x1="82.94" y1="158.43" x2="92.34" y2="158.43" xlink:href="#Dégradé_sans_nom_12"/><linearGradient id="Dégradé_sans_nom_3" x1="215.86" y1="219.1" x2="223.45" y2="219.1" gradientTransform="matrix(0.69, -0.05, 0.08, 0.64, -76.91, -38.81)" gradientUnits="userSpaceOnUse"><stop offset="0" stop-color="#cd9b95"/><stop offset="0.73" stop-color="#efc8c3"/></linearGradient><linearGradient id="Dégradé_sans_nom_22" x1="53.57" y1="130.97" x2="74.76" y2="130.97" gradientTransform="translate(17.41 -13.63) rotate(-0.9)" gradientUnits="userSpaceOnUse"><stop offset="0" stop-color="#939fa5"/><stop offset="0.08" stop-color="#a5afb4"/><stop offset="0.25" stop-color="#c6cccf"/><stop offset="0.42" stop-color="#dfe2e4"/><stop offset="0.6" stop-color="#f1f2f3"/><stop offset="0.78" stop-color="#fcfcfc"/><stop offset="1" stop-color="#fff"/></linearGradient><linearGradient id="Dégradé_sans_nom_12-7" x1="46.48" y1="126.44" x2="51.72" y2="126.44" gradientTransform="translate(17.41 -13.63) rotate(-0.9)" xlink:href="#Dégradé_sans_nom_12"/><linearGradient id="Dégradé_sans_nom_12-8" x1="75.85" y1="123.72" x2="78.8" y2="123.72" gradientTransform="translate(17.41 -13.63) rotate(-0.9)" xlink:href="#Dégradé_sans_nom_12"/><linearGradient id="Dégradé_sans_nom_12-9" x1="39.14" y1="130.62" x2="56.23" y2="130.62" gradientTransform="translate(-6.64 -27.08) rotate(-2.3)" xlink:href="#Dégradé_sans_nom_12"/></defs><title>em-hello-01</title><g id="Calque_3" data-name="Calque 3"><circle class="cls-3" cx="98.75" cy="98.81" r="91.5"/></g><g id="Calque_7" data-name="Calque 7"><g class="cls-4"><path class="cls-5" d="M124.21,129.45l31.28-10.55,21.6,21.41s-17.56,7.68-26.44,22.15c-10.51,17.12-9.77,41.81-11.07,41C134.21,200.36,124.21,140.42,124.21,129.45Z"/><path class="cls-6" d="M164.71,60l-1-3.76,2.44-3.85a53.68,53.68,0,0,0-.34-10.23c-.72-4.29-1.33-5.78-1.24-7.89a13.91,13.91,0,0,1,1.18-4.86c.54-1.42,5.27-11.74,5.14-12.67s-1.16-4.69-3.83-4.6-3.35,4.6-3.35,4.6-2.06,10.59-3,11.78-2.8,2.84-3.36,1.73-.5-4.56-.5-4.56-.11-15-.75-16.23-2.27-5.95-3.52-5.95-2,.62-2.24,2.57,1.38,13.32.91,15.8-.3,5.94-.93,6-1.61.91-2.73-1.54S143.12,13,143,10.23s-2-8.59-5.07-7.87-2.2,6-2.2,6,5.08,17.18,5.08,17.32.77,4.11.73,4.6a1,1,0,0,1-1.51.91c-.94-.48-9.58-16.67-11.18-18.22s-3.14-3.06-3.69-2.13a9.07,9.07,0,0,0-.91,4.17c.17.75,9.42,19.7,9.42,19.7s3.91,8,3.7,8.33a1.43,1.43,0,0,0-.22.74l-3.39-.3-6.54-5.58a34.12,34.12,0,0,0-4-.53c-.13.13-2.1,2.56-2.1,2.56l.54,2.12,4.06,2.62,4,6.07,6.84,6.2s9.07,3.89,9.2,3.89A8.72,8.72,0,0,1,146.89,62l.62,2.8S160.92,63.75,164.71,60Z"/><path class="cls-7" d="M151.59,59.1s-2.71,2.79-7,.66-3.75-2.79-8.26-3.85c0,0-5.93-4.78-7.48-7.84a14.47,14.47,0,0,0-7-6.77l-.77.93s4.9,2.79,5.41,4.12S129,51.93,131,53.12s3.23,4.39,5.42,4.78,5.8,2.4,7,2.66S148.88,64.54,151.59,59.1Z"/><path class="cls-7" d="M122.62,41.61s-2.12-3.41,1.58-3.94,8.94,6.91,8.94,6.91,9-1.86,14.45,6.11c0,0-3.61-8.15-13.84-7.26,0,0-3.79-6.38-9.12-6.65s-3.48,5.45-3.48,5.45Z"/><path class="cls-7" d="M137.62,43.73s-3.44-10-5.34-13.5S125.15,16.86,125,15.62s-.94-4.25,1.21-4.16,9.29,13.37,9.46,13.81,4,6.29,4,6.29l1.12-.09s-9-15-9.55-15.94-2.75-4.78-5-5.22-2.92,1.06-2.66,3A34.47,34.47,0,0,0,127,23.24c2,3.71,9.8,18.58,9.72,20.49"/><path class="cls-7" d="M140.42,30.83s.64.38.38-1.93-4-14.52-4-14.52-2.5-8.32-1.55-10.09c0,0,.6-3.55,3.52-2.75s4.73,6.91,4.91,9.74,4.12,15.41,5.33,16.56.17,1.24-1.38-1.5-4.3-11.61-4.56-13.29-1-7.52-2.92-9.3-3.18-1.15-3.74.09.21,7.53,2.28,13.37S143,29.7,142.24,30.59a3.12,3.12,0,0,1-2,.93Z"/><path class="cls-7" d="M148,27s2.54,2.28,2.54-1.88S149.23,4.73,150,3.84s1.65-2.83,4.18,0,2.87,15,2.7,18.24.09,8.59,1,8.86-1.38.62-1.64-3.54.35-14.88-1.12-18.6-2.75-5.58-3.48-4.16-1,4.52-.47,9,.9,14.62-.52,14.7A3.73,3.73,0,0,1,148,27Z"/><path class="cls-7" d="M157.27,29.78s2,1.6,3.49-3.44,3.17-15.94,6.7-15,5,3.54,2.58,9.3S164.79,31,164.88,33.15s0,3.63,0,3.63-1.46-1.21-.17-5.7,6.45-13.87,5.59-15.55-2.07-3.45-3.1-2.92a5.68,5.68,0,0,0-2.58,4.11c-.26,2-2.24,10.94-3.18,11.65S158.37,32.88,157.27,29.78Z"/><path class="cls-7" d="M164.24,35.28s3.65,14.7.81,17.62S162,56.71,162,57s-.43,1.24,0,1.15,4.65-2.92,4.65-4.42a45,45,0,0,0-.86-14.17C164,31.12,164.24,35.28,164.24,35.28Z"/><path class="cls-5" d="M156.89,126.34s-4.64-7.41-1.3-21.75c.67-2.88-1.89-17.4-1.89-17.4l-4.13-12.35s14.45-7.13,18.06-5.36l1.25,1.16s11.31,25.25,13.2,41.26.26,26.41-5,28.41S161.76,138,156.89,126.34Z"/><path class="cls-8" d="M147.57,73.68l-2.68-8.79s2,1.82,15.15-2.55c0,0,6.28-2.14,5.75-2.79l3.09,9s-.06,2.54-7.22,4S150,74.89,149,74.84A1.84,1.84,0,0,1,147.57,73.68Z"/><path class="cls-9" d="M166.51,59.55a69.64,69.64,0,0,1,2.38,8.35,1.41,1.41,0,0,1,0,.64c-.41.9-1.15,2.74-6.07,3.78,0,0,5.25-2.1,5.25-3.68S165.58,60,165.58,60s-1.14-1.33-.11-.87Z"/><path class="cls-10" d="M163.38,58.65s1.85-.4,2.41.9-15.57,6.16-19.66,5.78c-1-.1-1.48-.36-1.59-.69C144.2,63.64,147,62,147,62l.52,2S167.23,60.51,163.38,58.65Z"/><path class="cls-9" d="M153.76,74.16a17.81,17.81,0,0,1-4.74.68c-1.73-.16-2.33-4.06-2.33-4.06l-1.8-5.89s2.62,8.21,3.35,8.67S149.27,74.83,153.76,74.16Z"/><path class="cls-9" d="M168.55,69.2s6.73,17.2,8.1,21.35c0,0-7.84-20-8.6-20.68S168.55,69.2,168.55,69.2Z"/><path class="cls-9" d="M149.57,74.84s5.69,14.06,5.92,22.83c0,0-2-12.64-6.47-22.83Z"/><path class="cls-9" d="M177.46,93s10.15,30.91,3.26,43.57c0,0-1.22,3-3.63,3.74s5-2.39,5.16-11.47A111.42,111.42,0,0,0,177.46,93Z"/><polyline class="cls-5" points="7.25 200.07 139.07 197.79 131.43 127.02 98.23 138.26 56.28 135.51 11.49 160.1 7.25 200.07"/><path class="cls-11" d="M44.66,141.89l-21.87,12L19.22,199.2l46.38-.55S52.67,156,55.3,136.17Z"/><polyline class="cls-9" points="7.25 200.07 8.9 200.07 13.02 161.34 22.56 156.83 22.68 155.37 11.49 160.1 7.25 200.07"/><path class="cls-12" d="M99.59,133.63s6.94,38.4-.67,64.63l40.15-.47-11.66-71Z"/><path class="cls-13" d="M44.66,142,22.79,154l-3.57,45.31,46.38-.55s-12.93-42.66-10.3-62.48Z"/><path class="cls-14" d="M99.59,133.63s6.94,38.4-.67,64.63l40.15-.47-11.66-71Z"/><polyline class="cls-15" points="73.05 153.34 77.83 157.16 81.87 168.55 67.12 174.03 57.85 166.67 67.22 150.31"/><circle class="cls-16" cx="82.31" cy="167.75" r="1.78"/><circle class="cls-16" cx="82.98" cy="180.94" r="1.78"/><path class="cls-17" d="M101,145.47c1,11.23-19.79,12.61-27.64,13.29S57,159.41,56,148.18s2-22.13,9.9-22.82S100.06,134.24,101,145.47Z"/><path class="cls-18" d="M103.79,154.69c1,11.24-25.09,13.07-34.94,13.93s-19.43-17.22-11.5-25.24c4.43-4.48,9.55-8.63,15.11-10.46C81.85,129.82,102.81,143.46,103.79,154.69Z"/><path class="cls-15" d="M90.66,152.71l-4.58,4.95-2.54,13.45,21.72-12.18A40.8,40.8,0,0,0,90.66,152.71Z"/><path class="cls-19" d="M87.59,156s13.46,9.51,17.18,15.86c.52.89.81-8.43.81-8.43s-8-6.72-16.3-8.93C88.72,154.38,88.15,156.15,87.59,156Z"/><polyline class="cls-15" points="74.06 154.96 78.91 158.55 83.29 169.64 68.95 175.56 59.55 168.64 68.21 152.18"/><path class="cls-20" d="M87.25,156.48a3.28,3.28,0,0,1,3.47-1.09c4.89,1.06,13.16,7.94,18.52,14.81,0,0-1.34-21.16-7.38-33.44s-12.7-4.27-12.7-4.27S98.77,145.8,88.4,155C86.35,156.77,86.82,156.9,87.25,156.48Z"/><path class="cls-21" d="M54.65,110c1.54,3.85-.82-1.39.67,3.15,1.9,5.8,5.89,20.48,5.47,26.93-.21,3.23,13.92,15.66,17.85,15.32l3.77,4.13c1-.61.68-2.53,2.17-4.27,3-3.58,7.88-8.35,6.73-13l-.63-7.2c-.24-1.66-7.27-3-8.52-4.11-2.49-2.24-7-2.87-11.79-6C64.5,121.13,52.05,103.53,54.65,110Z"/><path class="cls-19" d="M65,170.94c-6,1.92,6.55-14.51,6.55-14.51s3.5-1.35,4.86,0,1,1.28,1,1.28S75.61,165.75,65,170.94Z"/><path class="cls-22" d="M61.57,138.11c-.2,1.71,4.05,6.9,6.36,5.88s-2.71-5.24-5.92-13.66-2.14-4.62-2.14-4.62Z"/><path class="cls-8" d="M58.27,177.73s-.38-10.59-3.27-18.79c-2.7-7.67-2-18.1-.19-23.53,1-3.15,2-6.51,4.49-7.93l.56,2.9c-2.73,1.83-7.31,9.14,11.25,22.78.93.68,5.2,2.72,6.28,3.43.87.57,1.51,2.32.6,1.49,0,0-1.71-3.55-4.82,3.58-5.26,12.07-14.9,16.07-14.9,16.07"/><circle class="cls-16" cx="83.7" cy="168.83" r="1.76"/><path class="cls-23" d="M106.1,86.21c-4.88-4-6.61,4.51-6.61,4.51a12.55,12.55,0,0,1,1-2.53,12.67,12.67,0,0,0-.51,3.06s.94,13,4,12.47a1.75,1.75,0,0,0,1.16-.89,7.7,7.7,0,0,0,.89-5.94c0-1.29-.13-2.52-.23-3.46.08-.86.19-1.49.19-1.49C107.57,87.35,106.1,86.21,106.1,86.21Z"/><path class="cls-22" d="M104.78,92.72c.93,2.43,1.58,7.61-2.07,18.82-3.9,12-2.79,8.61-4.38,18.27-.88,5.33-3.07,9.5-7.39,10.57-6.22,1.53-10.8.71-13.88-2.28s-13.52-10.54-15.69-13.29c-4.68-5.92-6.39-9.81-9-18.35-1.87-6.06-4.75-16-4.75-16a21.77,21.77,0,0,1-6.23-22.76C45.66,53.51,70,51.34,77.06,50.24s20,3.56,23.51,10.37,2.42,20.1,2.26,21.06S102.55,88.62,104.78,92.72Z"/><path class="cls-24" d="M39.32,70.2A42.31,42.31,0,0,0,45.9,98.75l6.16,4.38,3.55-1.72-5.52-12.6s2.52-6.58,2.33-5.23c-.11.83-9.2-23.34,8-26.18,0,0-9.5-.1-19.09,8.2Z"/><path class="cls-25" d="M89.45,136.33s-2.22.83-1.89,2.17S86,133.88,89.45,136.33Z"/><path class="cls-22" d="M54.43,112.5s-3,.54-6-4c-2.3-3.51-6.12-3-8.9-8.27-2.07-3.9-2.73-9.08,2.44-9S52.1,100.1,52.1,100.1Z"/><path class="cls-26" d="M91.11,105.49a5.81,5.81,0,0,1-2.81,2.24c-1.44.42-1.94.67-4.85-.66-2.73-1.25-6.93-2.76-8.31-1.89-2.46,1.54,1.29,3.93,1.29,3.93A14,14,0,0,1,86,112.34s8.1-5.11,6-9.16l-1.32-2.37S92.4,104,91.11,105.49Z"/><path class="cls-27" d="M82.57,110.23s-2.59-3.79-4.36-2.87S75,109.05,74.85,107c-.29-3.11.61-4.08.61-4.08a9.41,9.41,0,0,0-1.14,3.91c0,1.56.94,3,2.06,2.7A10.7,10.7,0,0,1,82.57,110.23Z"/><path class="cls-28" d="M95.57,56.25a28.46,28.46,0,0,1,7.64,19.83s.93-12.71-4.67-19.1C97.51,55.81,95.57,56.25,95.57,56.25Z"/><path class="cls-28" d="M62.23,57.89s-10.28-4-20.45,6.88c0,0-5,6.12-2.18,17.9,0,0,4.58-4.73,10.6-5.94C50.2,76.73,50.17,59.68,62.23,57.89Z"/><path class="cls-29" d="M51,104.46s-3-10.34-8.51-9.09a3.17,3.17,0,0,0,.15,4s-.41-3.16,1.37-2.79c1.62.34,6,4.11,7,7.88Z"/><path class="cls-30" d="M46.89,97.94s-1.21,2.93.46,4.46c0,0-3-2.64-1.68-5.48"/><path class="cls-31" d="M98.55,58.91s-2.32-5.22-19.94-1.83L77,49.72,88,42.92S99.84,50.67,98.55,58.91Z"/><path class="cls-32" d="M84.52,56.8c.91.15,6.22-4.59,6.59-9.46.4-5.27-1.09-10.58-17.69-9.4-11.33.8-15.65,6.94-23.82,12.44-7.76,5.22-11.86,13.87-10.54,22,0,0,4.14-3.87,13-5.55a18.67,18.67,0,0,1,8.77-8c10.13-4.5,18.48,2.35,18.48,2.35Z"/><path class="cls-33" d="M98.92,44.16c1.34-1.58,2.57-3.36,1.51-3.21s.87.93-.94,1.95-2.58,4.2-1.85,5.2.2,2.29-2.64,3.76a41.92,41.92,0,0,1-6.53,2.62,17.63,17.63,0,0,0,4.69-4.68c5.06-7.15,3.62-10.38,2.37-10.68a4.77,4.77,0,0,1-3.21-4.64c.26-2.39.13-3.56-.91-2.73l-.07,0c.31-.12.78-.09.69,1.15-.19,2.34,0,5.88,1.56,6.39s2.28,3.17.24,6.41c-1.77,2.8-5.57,7.66-10,9.72a8.25,8.25,0,0,1-3.25-.24l-.19.42a17.56,17.56,0,0,0,2.17.32c-.27.09-.55.17-.83.24l.75.17a7.73,7.73,0,0,0,2.5-.3,29.41,29.41,0,0,0,7.75-1c2.52-.69,5.39-3.73,6.15-5.49C99.26,48.62,97.58,45.75,98.92,44.16Z"/><path class="cls-34" d="M45.31,54.64c2.71-.92,22.57-6.71,27,2.45l.43.13S75.08,44.11,45.31,54.64Z"/><path class="cls-34" d="M80.28,61.56c0,.21.07.4.1.56"/><path class="cls-34" d="M80.17,60.77c12.35-14.14,6.7-21,6.7-21C96.22,44.59,82,58,80.15,60.51c0-.24,0-.48-.05-.71,13.78-21.12-8.48-21.56-8.48-21.56,25.32,1.66,9.37,17,8.45,21.08C77.68,38.48,52.53,48.57,52.53,48.57,78.22,34.18,78.94,54.9,80,59.74"/><path class="cls-34" d="M59.37,58.47s-.13-4-16.18,1.07c0,0,10.38-3.15,15.08-.41C58.27,59.13,60.32,59.48,59.37,58.47Z"/><path class="cls-35" d="M73.14,94s3.84-1,3.14-3.53c0,0-1.3,2.77-3.19,3.37Z"/><path class="cls-36" d="M86.71,79.21s-3.64,14.31,3.76,22.41C90.47,101.62,85.07,93.79,86.71,79.21Z"/><path class="cls-37" d="M90.48,126s-4.59,3.5-8.59,1.51C78.32,125.72,88.36,127.89,90.48,126Z"/><path class="cls-38" d="M50.21,76.26s35.43-12.39,52.59-5c0,0,1.4-4.36-5.45-6.24C85,61.58,62.72,68.2,49.94,72.12Z"/><path class="cls-39" d="M39.6,82.67c-.78-.12-4-2.66,6-8.58C53.33,70,77.62,56.39,99,55.43a23.08,23.08,0,0,1,9.07,1.14c9,3.47,11,12.45-4.8,17.28,0,0,.41-5-2-6.29-.78-.41-6.12-3.37-17.19-2.55-6.84.51-22.93,4.53-39.45,13-5.91,3-4.78,4.25-5.34,4.16"/><path class="cls-32" d="M87.56,79s.17,1.46,1.51,1.13c2.85-.7,5.75-2.23,9-1.51,1.46.33,4.64,2.81,4.64,2.81s.19-3.79-3.06-5.29c-2-.93-6.54-.8-8.93-.15-1.43.38-2.24-.67-3,.68A3.54,3.54,0,0,0,87.56,79Z"/><path class="cls-32" d="M77.78,79.52s1.68-2.53.55-2.78-11.91-6.07-20.06,4.93c0,0,.14,1.21,1.56.6s8.24-5.39,15-2.26C74.88,80,76.89,80.76,77.78,79.52Z"/><path class="cls-40" d="M93.58,91.56s-5.65,1.14-5.5-2.31c0,0,.6,2.85,5.5,2.31Z"/><path class="cls-20" d="M71.55,86.27l2.26.73c1,.35,1.68,3.68,1.17,3.81-1.86.47-2.92,1-9.62,1.43-2.51.14-3-3.12-2.33-3.67A11.26,11.26,0,0,1,71.55,86.27Z"/><path class="cls-41" d="M68,86.9c-2.68.35-2.68.35-2.56,2.17a3.13,3.13,0,0,0,3.2,3.06c1.64-.12,2.6-1.74,2.45-3.56S70.79,86.46,68,86.9Z"/><path class="cls-20" d="M70.74,87.21a1,1,0,0,0-.89,1.05,1,1,0,0,0,.94,1,1,1,0,0,0,.9-1A1,1,0,0,0,70.74,87.21Z"/><path class="cls-41" d="M75.27,90.78l-1.33-3.16a.73.73,0,0,0-.44-.42c-1-.34-4.34-1.28-10.74,1.3,0,0,5.93-4.42,11.67-2a.81.81,0,0,1,.47.47A9.54,9.54,0,0,1,75.27,90.78Z"/><path class="cls-20" d="M91.46,84s-1.66,1.36-2.06,1.62c-.82.53-.94,3.44-.46,3.48,5,.47,5.63.66,9.23-1,.86-.38,2-2.78,1.12-3.49C98.13,83.66,94.4,82.84,91.46,84Z"/><path class="cls-41" d="M93.67,83.85c2.25-.25,2.88-.27,2.91,1.76,0,1.74-1,3.41-2.48,3.59s-2.56-1.25-2.71-3C91.18,84,91.43,84,93.67,83.85Z"/><path class="cls-41" d="M88.7,89.26l.37-2.62a2.9,2.9,0,0,1,.58-1.08c1-.67,4.34-2.36,9.88-.93a9,9,0,0,0-10.12.23,2.23,2.23,0,0,0-1,1.38A8.08,8.08,0,0,0,88.7,89.26Z"/><path class="cls-22" d="M59.06,78.51a41.71,41.71,0,0,0,2.83,3.14l1.55-.94-2.13-3.17Z"/><path class="cls-42" d="M96.53,112.16s.84-.29-2.63,4.23c-2.7,3.5-2.06,6.9-7.64,7.93-2.17.4-6.58-.49-9.67-3a27.77,27.77,0,0,1-5.87-7.21,17.85,17.85,0,0,0,3.68,1.06C80.52,115.15,96.13,116.74,96.53,112.16Z"/><path class="cls-43" d="M94.2,114.36l-2.08,2.47s-5.31,3.3-17.82-.08L73,114.5S86.67,117.23,94.2,114.36Z"/><path class="cls-32" d="M87.64,113.05a12,12,0,0,0-5.57-1.75,52.84,52.84,0,0,0-7.81.38,15.66,15.66,0,0,0-3.67.56c-3.38,2.36.11,3,.11,3A33.15,33.15,0,0,0,85.88,117l1.3-.17S88.76,114,87.64,113.05Z"/><path class="cls-32" d="M86.6,113.08a7.21,7.21,0,0,1,4.12-2.38c2.78-.59,5-1,5.7-.55,2,1.24,1.28,2.22,1.28,2.22s-1.07,2.83-8.27,4l-1.36.38S86.1,114,86.6,113.08Z"/><path class="cls-44" d="M89.63,112.64l1.24,3a14.94,14.94,0,0,0-.79-3.36C89.65,111.61,89.24,112.59,89.63,112.64Z"/><path class="cls-44" d="M88.14,113.77l.72,2a7.76,7.76,0,0,0-.34-2.23C88.25,113.08,87.85,113.75,88.14,113.77Z"/><path class="cls-44" d="M90.57,111.35c.76.44,2.51,1.52,2.87,3.31a6.89,6.89,0,0,0-3.43-3C89.62,111.5,89.8,110.9,90.57,111.35Z"/><path class="cls-44" d="M91,111.14c.87.28,3.16,1,4.11,2.66a9.81,9.81,0,0,0-4.53-2.26C90.21,111.49,90.17,110.86,91,111.14Z"/><path class="cls-44" d="M82.77,113.44l-.81,3a14.75,14.75,0,0,0,1.47-3.13C83.46,112.59,82.45,113.24,82.77,113.44Z"/><path class="cls-44" d="M84.17,113.82,84,116.5a14.76,14.76,0,0,0,.56-2.86C84.52,113,83.92,113.67,84.17,113.82Z"/><path class="cls-44" d="M81.35,112.68a5.61,5.61,0,0,0-2.82,3.38s1.12-2.62,3.37-3C82.28,113,82.09,112.39,81.35,112.68Z"/><path class="cls-45" d="M77.78,122s3.56-1.79,5.72-.42c0,0,.26-.35-.46-.71s5-.21,6.31,1.78c0,0-1.68,1.77-5.25,1.43A15.74,15.74,0,0,1,77.78,122Z"/><path class="cls-46" d="M71.08,110a2.28,2.28,0,0,1-1.89,1.36c-1.55.27-3,1.42-3.12,2.41s-.59-1.49.94-2.36S69.8,111.21,71.08,110Z"/><path class="cls-47" d="M95.18,107.59s1.79.35,2.24,1.21a13.7,13.7,0,0,1,.76,1.72S98.36,105.78,95.18,107.59Z"/><path class="cls-48" d="M94.16,55.87s-14.12.28-38.92,13c0,0-17.25,8.07-16.84,12,0,0,.13-1.84,6.08-5.46,9.64-5.85,27.94-14.82,44.39-18,0,0,10.35-2.12,14.56-1.81C103.43,55.54,95.66,55.05,94.16,55.87Z"/><path class="cls-49" d="M48.25,94.27s-5.4-5.47-8.92-3.56-1.52,8.72.7,11,7.92,6,8.65,7.72,4,4.63,6.53,2.45c0,0-3.28,1.26-5.54-2.62,0,0-2.83-4.1-6.15-5.6-3-1.37-5.1-6.59-4.7-10.34C38.82,93.33,39.2,88.34,48.25,94.27Z"/><path class="cls-20" d="M96.32,84.44a1,1,0,0,0-.89,1.06,1,1,0,0,0,.95,1,1,1,0,0,0,.89-1A1,1,0,0,0,96.32,84.44Z"/></g></g></svg>